<svg xmlns="http://www.w3.org/2000/svg" xmlns:xlink="http://www.w3.org/1999/xlink" width="220.166" height="127" viewBox="0 0 220.166 127">
  <defs>
    <linearGradient id="linear-gradient" x1="-2.395" y1="-0.227" x2="-2.387" y2="-0.227" gradientUnits="objectBoundingBox">
      <stop offset="0" stop-color="#d8d9da"/>
      <stop offset="0.1" stop-color="#919396"/>
      <stop offset="0.2" stop-color="#68696b"/>
      <stop offset="0.3" stop-color="#4a4b4c"/>
      <stop offset="0.5" stop-color="#2b292a"/>
      <stop offset="1" stop-color="#231f20"/>
    </linearGradient>
    <linearGradient id="linear-gradient-2" x1="-2.588" y1="-0.028" x2="-2.578" y2="-0.028" gradientUnits="objectBoundingBox">
      <stop offset="0" stop-color="#dfd6e9"/>
      <stop offset="0.2" stop-color="#dfd6e9"/>
      <stop offset="1" stop-color="#652d89"/>
    </linearGradient>
    <linearGradient id="linear-gradient-3" x1="-2.698" y1="-0.185" x2="-2.686" y2="-0.185" gradientUnits="objectBoundingBox">
      <stop offset="0" stop-color="#cac8c9"/>
      <stop offset="0.9" stop-color="#8e8d90"/>
      <stop offset="1" stop-color="#8c8c8f"/>
    </linearGradient>
  </defs>
  <g id="brunts-academy-logo.pagespeed.1669887369" transform="translate(0 -0.981)">
    <path id="Path_4039" data-name="Path 4039" d="M9.593,789.786l-5.05.136c-1.966.068-2.78.237-3.288.983a4.014,4.014,0,0,0-.576,1.186c-.068.271-.169.407-.373.407-.237,0-.3-.169-.3-.542,0-.543.644-3.627.712-3.9.1-.441.2-.644.407-.644a7.883,7.883,0,0,0,1.458.407c.983.1,2.271.169,3.39.169H19.389a16.244,16.244,0,0,0,2.339-.169,8.17,8.17,0,0,1,.915-.17c.237,0,.271.2.271.712,0,.712-.1,3.051-.1,3.932-.034.339-.1.542-.305.542-.271,0-.339-.169-.373-.678l-.034-.373c-.068-.881-.983-1.83-4-1.9l-4.271-.1v13.9c0,3.118,0,5.8.169,7.254.1.949.305,1.694,1.322,1.83a14.3,14.3,0,0,0,1.729.136c.373,0,.543.1.543.271,0,.237-.271.339-.644.339-2.237,0-4.372-.1-5.322-.1-.78,0-2.915.1-4.271.1-.441,0-.678-.1-.678-.339,0-.17.136-.271.543-.271a5.536,5.536,0,0,0,1.22-.136c.678-.136.881-.881.983-1.864.169-1.424.169-4.1.169-7.22Z" transform="translate(0 -719.804)" fill="#fff"/>
    <path id="Path_4040" data-name="Path 4040" d="M318.95,847.615c.068,0,.169-.034.169-.2v-.61c0-4.372-.034-5.423-.068-6.339-.068-.983-.339-1.288-1.288-1.559a5.369,5.369,0,0,0-1.153-.1q-.508,0-.508-.305c0-.2.2-.271.644-.271,1.593,0,3.695.068,4.474.068.712,0,2.678-.068,3.831-.068.441,0,.644.068.644.271s-.2.305-.542.305a5,5,0,0,0-.882.1c-.779.135-1.017.542-1.084,1.559-.068.915-.068,1.729-.068,6.1v5.085c0,2.644,0,4.915.136,6.17.1.813.271,1.356,1.186,1.491a10.81,10.81,0,0,0,1.526.1c.3,0,.474.169.474.3,0,.2-.237.3-.61.3-1.932,0-3.9-.1-4.712-.1-.678,0-2.78.1-3.932.1-.407,0-.644-.1-.644-.3,0-.136.136-.3.474-.3a4.507,4.507,0,0,0,1.085-.1c.61-.135.779-.678.881-1.525.136-1.22.136-3.424.136-6.068v-2.2a.182.182,0,0,0-.169-.169H307.7c-.1,0-.2.034-.2.169v2.2c0,2.644.034,4.848.169,6.1.1.813.271,1.356,1.153,1.491a11.164,11.164,0,0,0,1.526.1c.339,0,.474.169.474.3,0,.2-.237.3-.61.3-1.932,0-4-.1-4.847-.1-.678,0-2.644.1-3.83.1-.373,0-.576-.1-.576-.3,0-.136.1-.3.474-.3a4.392,4.392,0,0,0,1.051-.1c.61-.135.779-.678.881-1.525.136-1.22.136-3.491.136-6.135v-5.085c0-4.373,0-5.186-.034-6.1-.067-.983-.339-1.288-1.288-1.559a5.5,5.5,0,0,0-1.186-.1c-.305,0-.509-.1-.509-.305s.238-.271.644-.271c1.593,0,3.559.068,4.373.068.712,0,2.78-.068,3.966-.068.407,0,.61.068.61.271s-.169.305-.543.305a4.37,4.37,0,0,0-.847.1c-.814.135-1.051.542-1.119,1.559-.068.915-.068,1.966-.068,6.339v.61a.178.178,0,0,0,.2.2Z" transform="translate(-275.018 -766.312)" fill="#fff"/>
    <path id="Path_4041" data-name="Path 4041" d="M650.384,844c0-4.373,0-5.186-.034-6.1-.068-.983-.339-1.288-1.288-1.559a5.494,5.494,0,0,0-1.186-.1c-.305,0-.509-.1-.509-.305s.238-.271.678-.271c1.559,0,3.457.068,4.3.068.949,0,7.559.034,8.135,0,.543-.034,1.017-.136,1.254-.169a3.484,3.484,0,0,1,.475-.135c.169,0,.2.135.2.271a12.763,12.763,0,0,0-.237,1.865c-.034.3-.1,1.559-.169,1.9-.034.136-.1.474-.339.474-.2,0-.237-.136-.237-.373a2.707,2.707,0,0,0-.2-1.051c-.237-.508-.475-.915-1.966-1.051-.508-.068-4.067-.136-4.678-.136-.136,0-.2.1-.2.271v7.119c0,.169.034.3.2.3.678,0,4.542,0,5.22-.068.712-.068,1.153-.135,1.424-.44.237-.2.339-.373.474-.373a.274.274,0,0,1,.237.3c0,.17-.068.644-.237,2.1-.068.576-.136,1.729-.136,1.932,0,.237-.034.644-.3.644-.2,0-.271-.1-.271-.237-.034-.305-.034-.678-.1-1.051-.169-.576-.543-1.017-1.661-1.119-.543-.068-3.932-.136-4.678-.136-.136,0-.169.136-.169.3v2.305c0,.983-.034,3.423,0,4.271.068,1.966.983,2.408,4.034,2.408a8.054,8.054,0,0,0,2.813-.374c.746-.339,1.085-.949,1.288-2.136.068-.3.136-.44.339-.44.237,0,.271.373.271.678a19.5,19.5,0,0,1-.407,3.186c-.2.746-.475.746-1.593.746-2.237,0-4.034-.034-5.491-.1-1.458-.034-2.576-.068-3.458-.068-.339,0-.983.034-1.695.034-.712.034-1.458.068-2.068.068-.373,0-.576-.1-.576-.3,0-.136.1-.3.475-.3a4.389,4.389,0,0,0,1.051-.1c.61-.135.779-.678.881-1.525.136-1.22.136-3.491.136-6.135Z" transform="translate(-592.521 -763.749)" fill="#fff"/>
    <path id="Path_4042" data-name="Path 4042" d="M1013.021,806.135a4.869,4.869,0,0,0-2.813-.814c-.61-.034-.949-.034-1.458-.034-.135,0-.2.068-.2.237v8.034c0,2.237.1,2.813,1.186,3.254a6.105,6.105,0,0,0,2.475.406,3.947,3.947,0,0,0,4.1-4.339A8.073,8.073,0,0,0,1013.021,806.135Zm-4.474-2.712c0,.271.1.339.237.373a8.286,8.286,0,0,0,1.594.1,3.446,3.446,0,0,0,2.44-.644,4.421,4.421,0,0,0,1.39-3.593c0-2.271-1.322-5.254-4.237-5.254a5.5,5.5,0,0,0-1.119.068c-.237.068-.3.2-.3.576Zm-4.067-.576c0-5.152,0-6.1-.068-7.186-.068-1.152-.339-1.695-1.458-1.932a6.971,6.971,0,0,0-1.322-.1c-.373,0-.576-.068-.576-.3s.237-.305.746-.305c1.8,0,3.932.1,4.61.1,1.661,0,2.983-.1,4.135-.1,6.135,0,7.22,3.288,7.22,5.084,0,2.78-1.593,4.44-3.458,5.932,2.78.949,6.169,3.356,6.169,7.321,0,3.627-2.813,7.39-9.05,7.39-.407,0-1.39-.068-2.373-.1-1.017-.068-2.034-.1-2.542-.1-.373,0-1.119,0-1.932.034-.78,0-1.661.068-2.339.068-.44,0-.678-.1-.678-.339,0-.17.136-.271.543-.271a5.536,5.536,0,0,0,1.22-.136c.678-.136.847-.881.983-1.864.17-1.424.17-4.1.17-7.22Z" transform="translate(-916.244 -724.933)" fill="#fff"/>
    <path id="Path_4043" data-name="Path 4043" d="M1279.543,848.8c0,.305.068.407.271.509a8.188,8.188,0,0,0,2.271.271,3,3,0,0,0,2.1-.474,4.874,4.874,0,0,0,1.932-4.271c0-4.068-2.78-5.119-4.542-5.119a10.855,10.855,0,0,0-1.763.1c-.2.068-.271.169-.271.407Zm-3.8-2.237c0-4.373,0-5.186-.034-6.1-.068-.983-.339-1.288-1.288-1.559a5.5,5.5,0,0,0-1.186-.1c-.3,0-.508-.1-.508-.305s.237-.271.678-.271c1.559,0,3.458.068,4.068.068,1.017,0,3.729-.068,4.644-.068a10.443,10.443,0,0,1,5.661,1.22,5.036,5.036,0,0,1,2.1,3.966c0,2.136-1.22,4.034-4.135,6.373,2.644,3.254,4.745,5.865,6.542,7.661a5.6,5.6,0,0,0,3.187,1.9,2.771,2.771,0,0,0,.712.068.346.346,0,0,1,.373.3c0,.237-.2.3-.576.3h-2.847a6.465,6.465,0,0,1-3.254-.576c-1.288-.644-2.407-2-4.068-4.237-1.186-1.559-2.441-3.491-2.813-3.932a.688.688,0,0,0-.542-.2l-2.678-.068a.214.214,0,0,0-.237.237v.407c0,2.678.034,4.915.169,6.135.1.848.237,1.39,1.153,1.525a11.322,11.322,0,0,0,1.458.1.346.346,0,0,1,.373.3c0,.2-.237.3-.61.3-1.729,0-4.2-.1-4.644-.1-.576,0-2.475.1-3.661.1-.373,0-.576-.1-.576-.3,0-.136.1-.3.475-.3a4.389,4.389,0,0,0,1.051-.1c.61-.135.78-.678.881-1.525.135-1.22.135-3.491.135-6.135Z" transform="translate(-1164.902 -766.312)" fill="#fff"/>
    <path id="Path_4044" data-name="Path 4044" d="M1533.384,846.564c0-4.373.034-5.186-.034-6.1-.067-1.017-.339-1.288-1.288-1.559a5.365,5.365,0,0,0-1.152-.1q-.508,0-.508-.305c0-.2.2-.271.644-.271,1.593,0,3.593.068,4.474.068.746,0,2.746-.068,3.831-.068.441,0,.644.068.644.271s-.17.305-.475.305a4.136,4.136,0,0,0-.881.1c-.78.135-1.017.542-1.085,1.559-.068.915-.068,1.729-.068,6.1V850.6c0,4.2.814,5.83,2.271,6.982a5.74,5.74,0,0,0,3.763,1.153,5.683,5.683,0,0,0,4-1.525c1.661-1.559,1.729-4.068,1.729-7.017v-3.627c0-4.373-.034-5.186-.068-6.1-.068-.983-.305-1.288-1.254-1.559a5.131,5.131,0,0,0-1.085-.1q-.508,0-.508-.305c0-.2.2-.271.61-.271,1.526,0,3.526.068,3.559.068.339,0,2.339-.068,3.492-.068.407,0,.61.068.61.271s-.169.305-.508.305a4.138,4.138,0,0,0-.881.1c-.814.135-1.017.542-1.085,1.559-.034.915-.068,1.729-.068,6.1v3.085c0,3.22-.339,6.61-2.847,8.678a9.3,9.3,0,0,1-6.3,2.068c-1.559,0-4.644-.068-6.813-1.966-1.526-1.322-2.712-3.458-2.712-7.627Z" transform="translate(-1400.742 -766.312)" fill="#fff"/>
    <path id="Path_4045" data-name="Path 4045" d="M1841.036,850.6c.068,2.237.441,2.915,1.017,3.119a5.067,5.067,0,0,0,1.559.2c.339,0,.509.136.509.3,0,.237-.271.3-.678.3-1.932,0-3.322-.1-3.865-.1-.271,0-1.694.1-3.22.1-.407,0-.678-.033-.678-.3,0-.169.2-.3.475-.3a6.136,6.136,0,0,0,1.356-.136c.78-.2.881-.983.915-3.491l.271-17.084c0-.576.2-.983.509-.983.372,0,.78.441,1.288.949.373.373,4.848,4.949,9.186,9.186,2.034,2,6,6.068,6.44,6.474h.136l-.305-12.813c-.034-1.763-.3-2.271-1.017-2.542a5,5,0,0,0-1.559-.17c-.373,0-.474-.135-.474-.305,0-.237.305-.271.746-.271,1.559,0,3.153.068,3.8.068.339,0,1.458-.068,2.915-.068.407,0,.678.034.678.271,0,.17-.17.305-.509.305a3.028,3.028,0,0,0-.915.1c-.813.237-1.051.746-1.084,2.373l-.339,18.169c0,.644-.237.915-.474.915a1.774,1.774,0,0,1-1.22-.61c-1.864-1.729-5.593-5.288-8.711-8.3-3.254-3.119-6.407-6.61-6.983-7.119h-.1Z" transform="translate(-1680.158 -760.82)" fill="#fff"/>
    <path id="Path_4046" data-name="Path 4046" d="M2169.009,835.595l-4.44.1c-1.729.034-2.441.237-2.881.881a3.364,3.364,0,0,0-.508.983c-.068.237-.136.373-.339.373s-.271-.169-.271-.474c0-.474.576-3.254.644-3.491.068-.373.17-.543.339-.543.237,0,.543.237,1.289.339a28,28,0,0,0,2.983.135h12.1a13.218,13.218,0,0,0,2.034-.135c.474-.068.712-.136.814-.136.2,0,.237.169.237.61,0,.61-.068,2.746-.068,3.491-.034.305-.1.474-.271.474-.238,0-.305-.136-.339-.576l-.034-.3c-.068-.746-.847-1.627-3.525-1.661l-3.763-.068v11.661c0,2.644.034,4.915.169,6.169.1.813.271,1.356,1.153,1.491a11.165,11.165,0,0,0,1.525.1c.339,0,.475.169.475.3,0,.2-.238.3-.576.3-1.966,0-3.966-.1-4.814-.1-.677,0-2.712.1-3.9.1-.373,0-.576-.1-.576-.3,0-.136.1-.3.475-.3a4.2,4.2,0,0,0,1.051-.1c.61-.135.78-.678.882-1.525.135-1.22.135-3.491.135-6.135Z" transform="translate(-1977.521 -761.918)" fill="#fff"/>
    <path id="Path_4047" data-name="Path 4047" d="M2441.219,855.255c-.474-.2-.576-.339-.576-.982,0-1.56.136-3.356.169-3.831,0-.441.136-.746.373-.746.272,0,.305.271.305.474a5.353,5.353,0,0,0,.271,1.492c.644,2.136,2.881,2.847,4.745,2.847,2.576,0,4.135-1.627,4.135-3.661,0-1.254-.3-2.509-2.949-4.068l-1.729-1.017c-3.525-2.068-4.678-4-4.678-6.542,0-3.525,3.39-5.8,7.525-5.8a17.7,17.7,0,0,1,4.237.474c.271.068.407.17.407.373,0,.373-.1,1.186-.1,3.457,0,.61-.135.915-.373.915q-.3,0-.3-.508a3.257,3.257,0,0,0-.78-1.9,4.008,4.008,0,0,0-3.322-1.356c-2.136,0-4.068,1.119-4.068,3.085,0,1.288.475,2.3,3.153,3.8l1.22.678c3.932,2.169,5.153,4.373,5.153,6.983a6.158,6.158,0,0,1-2.983,5.39,8.694,8.694,0,0,1-4.983,1.186A12.677,12.677,0,0,1,2441.219,855.255Z" transform="translate(-2233.867 -761.918)" fill="#fff"/>
    <path id="Path_4048" data-name="Path 4048" d="M312.313,1200.156c.169,0,.2-.1.169-.2l-3.051-8.372c-.034-.135-.068-.305-.169-.305s-.17.17-.2.305l-3.119,8.339c-.034.135,0,.237.136.237Zm-6.915,1.694c-.169,0-.238.068-.305.272l-1.83,4.847a6.579,6.579,0,0,0-.508,2.068c0,.61.3,1.051,1.356,1.051h.508c.407,0,.509.068.509.271,0,.271-.2.339-.576.339-1.085,0-2.542-.1-3.593-.1-.373,0-2.237.1-4,.1-.441,0-.644-.068-.644-.339,0-.2.136-.271.407-.271a10.182,10.182,0,0,0,1.051-.068c1.559-.2,2.2-1.356,2.881-3.051l8.509-21.287c.407-.984.61-1.356.949-1.356.305,0,.509.3.848,1.084.813,1.864,6.237,15.694,8.407,20.847,1.288,3.051,2.271,3.525,2.983,3.7a7.443,7.443,0,0,0,1.424.135c.271,0,.441.034.441.271,0,.271-.3.339-1.559.339-1.22,0-3.695,0-6.406-.068-.61-.033-1.017-.033-1.017-.271,0-.2.136-.271.474-.305a.552.552,0,0,0,.305-.78l-2.711-7.186a.327.327,0,0,0-.339-.238Z" transform="translate(-271.209 -1083.09)" fill="#fff"/>
    <path id="Path_4049" data-name="Path 4049" d="M616.6,1252.991a11.125,11.125,0,0,1-.237-16.406c2.17-1.9,5.017-3.051,9.457-3.051a30.566,30.566,0,0,1,4.339.305c1.118.169,2.1.373,2.983.474.339.034.441.169.441.339,0,.237-.068.576-.136,1.593-.068.949-.068,2.542-.1,3.119-.034.406-.136.712-.407.712-.238,0-.305-.237-.305-.61a4.061,4.061,0,0,0-1.152-2.677c-1.017-.983-3.017-1.7-5.763-1.7-2.61,0-4.271.475-5.627,1.627-2.2,1.9-2.746,4.678-2.746,7.491,0,6.848,5.288,10.1,9.288,10.1,2.644,0,4.1-.2,5.288-1.526a4.657,4.657,0,0,0,1.017-1.932c.067-.441.136-.577.373-.577.2,0,.339.271.339.508a25.463,25.463,0,0,1-.644,3.83,1.008,1.008,0,0,1-.779.847,17.49,17.49,0,0,1-5.39.644C622.769,1256.11,619.312,1255.262,616.6,1252.991Z" transform="translate(-560.948 -1128.129)" fill="#fff"/>
    <path id="Path_4050" data-name="Path 4050" d="M880.636,1243.961c.136,0,.169-.067.136-.169l-2.813-7.322c-.034-.1-.068-.271-.136-.271-.1,0-.136.17-.169.271l-2.881,7.287c-.068.136,0,.2.1.2Zm-6.373,1.594c-.169,0-.2.034-.271.2l-1.593,3.864a5.223,5.223,0,0,0-.441,1.763c0,.508.271.813,1.186.813h.441c.373,0,.441.135.441.305,0,.237-.169.305-.474.305-.983,0-2.373-.1-3.322-.1-.305,0-1.9.1-3.458.1-.373,0-.542-.068-.542-.305a.3.3,0,0,1,.339-.305c.271,0,.61-.034.881-.034,1.356-.2,1.864-1.085,2.474-2.543l7.8-18.135c.339-.813.576-1.153.881-1.153.441,0,.576.271.881.915.712,1.593,5.694,13.389,7.593,17.762,1.153,2.61,2,2.983,2.542,3.085a7.162,7.162,0,0,0,1.119.1q.407,0,.407.305c0,.237-.169.305-1.288.305-1.051,0-3.22,0-5.729-.068-.543-.033-.881-.033-.881-.237,0-.17.068-.271.373-.305a.453.453,0,0,0,.271-.644l-2.3-5.8a.283.283,0,0,0-.305-.2Z" transform="translate(-792.841 -1125.2)" fill="#fff"/>
    <path id="Path_4051" data-name="Path 4051" d="M1178.455,1249.863c0,3.051.034,5.254.068,5.83a5.257,5.257,0,0,0,.339,2.034c.373.543,1.559,1.153,3.9,1.153,2.712,0,4.712-.475,6.508-1.966,1.932-1.593,2.542-4.17,2.542-7.152a9.377,9.377,0,0,0-2.78-7.186,12.031,12.031,0,0,0-8.339-2.746,6.342,6.342,0,0,0-1.83.2.507.507,0,0,0-.373.576c-.034.983-.034,3.356-.034,5.627Zm-4-3.186c0-4.373,0-5.186-.034-6.1-.068-.984-.339-1.289-1.288-1.559a5.473,5.473,0,0,0-1.187-.1c-.3,0-.508-.1-.508-.3s.237-.271.678-.271c1.559,0,3.458.068,4.305.068.915,0,3.051-.068,4.847-.068,3.729,0,8.745,0,12,3.288a10.093,10.093,0,0,1,2.813,7.322,11.172,11.172,0,0,1-3.254,8.033c-1.356,1.356-4.508,3.39-10,3.39-1.085,0-2.373-.1-3.559-.169-1.186-.1-2.271-.17-3.017-.17-.339,0-.983.034-1.695.034-.712.034-1.458.068-2.068.068-.373,0-.577-.1-.577-.3,0-.135.1-.305.475-.305a4.373,4.373,0,0,0,1.051-.1c.61-.135.779-.678.881-1.525.135-1.22.135-3.491.135-6.135Z" transform="translate(-1072.192 -1132.526)" fill="#fff"/>
    <path id="Path_4052" data-name="Path 4052" d="M1490.443,1244.114c0-4.373,0-5.186-.033-6.1-.068-.984-.339-1.289-1.289-1.559a5.462,5.462,0,0,0-1.186-.1c-.305,0-.509-.1-.509-.3s.237-.271.678-.271c1.559,0,3.457.068,4.3.068.949,0,7.559.034,8.135,0,.542-.034,1.017-.136,1.254-.169a3.466,3.466,0,0,1,.475-.136c.169,0,.2.136.2.271a12.821,12.821,0,0,0-.238,1.865c-.034.305-.1,1.559-.169,1.9-.034.135-.1.474-.339.474-.2,0-.238-.135-.238-.372a2.706,2.706,0,0,0-.2-1.051c-.237-.508-.474-.915-1.966-1.051-.509-.068-4.068-.135-4.678-.135-.135,0-.2.1-.2.271v7.119c0,.169.034.305.2.305.678,0,4.542,0,5.22-.068.712-.068,1.153-.136,1.424-.44.238-.2.339-.373.475-.373s.237.135.237.305-.068.644-.237,2.1c-.068.577-.135,1.729-.135,1.932,0,.237-.034.644-.305.644-.2,0-.271-.1-.271-.237-.034-.305-.034-.678-.1-1.051-.17-.576-.542-1.017-1.661-1.119-.542-.068-3.932-.135-4.678-.135-.136,0-.17.135-.17.3v2.3c0,.983-.034,3.423,0,4.271.068,1.966.983,2.407,4.034,2.407a8.05,8.05,0,0,0,2.813-.373c.746-.339,1.085-.949,1.288-2.135.068-.305.136-.44.339-.44.237,0,.271.373.271.678a19.5,19.5,0,0,1-.407,3.186c-.2.746-.474.746-1.593.746-2.237,0-4.034-.034-5.491-.1-1.458-.034-2.576-.068-3.457-.068-.339,0-.983.033-1.7.033-.712.034-1.457.068-2.068.068-.373,0-.576-.1-.576-.3,0-.136.1-.305.474-.305a4.365,4.365,0,0,0,1.051-.1c.61-.135.78-.678.882-1.525.135-1.22.135-3.491.135-6.135Z" transform="translate(-1361.409 -1129.963)" fill="#fff"/>
    <path id="Path_4053" data-name="Path 4053" d="M1710.806,1231.48c.068-.475.339-.746.576-.746.305,0,.508.135.915.915l8,16.067,8-16.271c.238-.475.508-.712.78-.712.237,0,.576.305.678.915l2.711,17.8c.271,1.8.542,2.576,1.458,2.847a5.889,5.889,0,0,0,1.695.271c.271,0,.475.1.475.272,0,.237-.339.339-.78.339-.746,0-4.983-.135-6.169-.2-.712-.034-.881-.17-.881-.339,0-.136.135-.238.339-.305.169-.068.238-.407.136-1.22l-1.661-12.474h-.1l-6.407,12.881c-.678,1.356-.847,1.627-1.186,1.627-.373,0-.712-.576-1.186-1.457-.712-1.322-3.085-5.729-3.424-6.542-.237-.542-2-4.169-2.982-6.17h-.1l-1.424,11.254a9.42,9.42,0,0,0-.1,1.356c0,.542.407.745.915.848a5.159,5.159,0,0,0,1.051.135c.271,0,.474.136.474.272,0,.271-.271.339-.712.339-1.255,0-2.61-.1-3.153-.1-.576,0-2,.1-2.949.1-.305,0-.543-.068-.543-.339,0-.136.169-.272.475-.272a5.41,5.41,0,0,0,.915-.068c.814-.1,1.085-1.254,1.22-2.2Z" transform="translate(-1560.775 -1125.566)" fill="#fff"/>
    <path id="Path_4054" data-name="Path 4054" d="M2048.962,1252.643a5.748,5.748,0,0,0-.678-3.017c-.2-.441-4.271-6.779-5.322-8.3a6.58,6.58,0,0,0-1.932-2.034,2.96,2.96,0,0,0-1.255-.373c-.237,0-.441-.1-.441-.3s.2-.271.576-.271c.509,0,2.746.068,3.729.068.644,0,2.034-.068,3.39-.068.271,0,.441.068.441.271,0,.237-.2.237-.678.373-.237.068-.407.2-.407.441a2.241,2.241,0,0,0,.373.983c.542.882,4.441,7.627,4.949,8.44.373-.678,4-6.847,4.441-7.728a3.8,3.8,0,0,0,.44-1.526c0-.271-.135-.542-.644-.644-.271-.068-.542-.1-.542-.339,0-.2.17-.271.509-.271.983,0,2.033.068,2.915.068.644,0,2.61-.068,3.187-.068.339,0,.542.068.542.237,0,.2-.237.339-.577.339a3.639,3.639,0,0,0-1.288.339,3.991,3.991,0,0,0-1.559,1.356,96.485,96.485,0,0,0-5.8,9.22,6.7,6.7,0,0,0-.373,2.881v2.3c0,.475,0,1.661.068,2.881.068.848.339,1.39,1.22,1.525a11.335,11.335,0,0,0,1.491.1c.339,0,.508.17.508.305,0,.2-.237.3-.644.3-1.864,0-3.864-.1-4.678-.1-.746,0-2.745.1-3.864.1-.407,0-.644-.068-.644-.3,0-.135.136-.305.474-.305a4.57,4.57,0,0,0,1.051-.1c.61-.135.847-.678.915-1.525.1-1.22.1-2.406.1-2.881Z" transform="translate(-1866.558 -1132.526)" fill="#fff"/>
    <path id="Path_4055" data-name="Path 4055" d="M955.231,14.78s4.117-7.868,17.981-7.868l8.567-4.888a4.927,4.927,0,0,1,5.919-.105,83.228,83.228,0,0,1,14.155,11.734l2.21-3.053s1.376-1.79,3.7.714c2.523,2.716,2.872,2.923,3.247,4.548s8.158,31.163-28,45.09C983.013,60.952,946.615,48.5,955.231,14.78Z" transform="translate(-873.094 0)" fill="#fff"/>
    <path id="Path_4056" data-name="Path 4056" d="M1145.326,169.072a74.413,74.413,0,0,0,12.8,6.976s34.449-11.462,26.531-44.23a18.838,18.838,0,0,0-3.57-3.607s-.288-.136-.175.377C1180.91,128.589,1190.229,169.122,1145.326,169.072Z" transform="translate(-1048.292 -116.437)" fill-rule="evenodd" fill="url(#linear-gradient)"/>
    <path id="Path_4057" data-name="Path 4057" d="M1098.44,65.646s37.208,1.522,31.993-36.613c0,0-8.873-9.1-15.927-12.506-.554-.27-1.315-.3-1.471.31,0,0,26.991,43.907-17.95,45.755A27.17,27.17,0,0,0,1098.44,65.646Z" transform="translate(-1002.307 -14.062)" fill-rule="evenodd" fill="url(#linear-gradient-2)"/>
    <path id="Path_4058" data-name="Path 4058" d="M980.03,125.231s-13.782-9.951-8.773-32.07c0,0,4.851-7.744,17.4-7.179C988.653,85.982,1020.65,119.958,980.03,125.231Z" transform="translate(-887.967 -77.773)" fill-rule="evenodd" fill="url(#linear-gradient-3)"/>
    <path id="Path_4059" data-name="Path 4059" d="M1054.225,216.437a.528.528,0,0,0-.124.171.921.921,0,0,1,.452-.186,1.7,1.7,0,0,1,.587.042,1.648,1.648,0,0,0,.553.047,1.333,1.333,0,0,0,.415-.181,1.647,1.647,0,0,0,.188-.124.322.322,0,0,0,.129-.189,1.145,1.145,0,0,1-.694.228,5.258,5.258,0,0,1-.743-.167.616.616,0,0,0-.24.014,1.19,1.19,0,0,0-.368.209C1054.326,216.35,1054.273,216.391,1054.225,216.437Z" transform="translate(-964.795 -196.818)" fill="#652d89"/>
    <path id="Path_4060" data-name="Path 4060" d="M1017.384,193.382s0,0,0,0c0-.037,0-.065,0-.1a.948.948,0,0,1,.008-.131.518.518,0,0,1,.022-.083.367.367,0,0,1,.051-.1.375.375,0,0,1,.027-.04.339.339,0,0,1,.121-.076c.013-.005.029-.008.043-.013a.662.662,0,0,1,.135-.023l.03,0c.182-.007.395.025.6.026h.007a1.1,1.1,0,0,0,.237-.022l.016,0a2.337,2.337,0,0,1,.242.586c.014.079-.116.056-.112.181s.154.3.181.41c.1.387.07.54-.042.652s-.289.391-.387.424a.839.839,0,0,1-.347.012c-.129-.016-.263-.042-.389-.054h0a1.387,1.387,0,0,0,.359.7h0c.1-.012.185-.019.256-.022a1.092,1.092,0,0,1,.541.12h0c.062-.028.16-.18.226-.21a.036.036,0,0,1,.049.023,5.353,5.353,0,0,0,.731,1.993l0,0,0,0a5.658,5.658,0,0,1,.428-1.131c.1-.163.224-.214.219-.358a.168.168,0,0,0-.027-.095c-.026-.043-.073-.061-.126-.1a.418.418,0,0,1-.08-.089c-.065-.1-.13-.265-.181-.349a3.091,3.091,0,0,1-.489-1.467,1.96,1.96,0,0,1,.2-1.127c.042-.1.13-.2.163-.3.075-.209.056-.489.154-.712s.3-.307.387-.54a.164.164,0,0,0-.04-.129c-.049-.059-.138-.074-.2-.121a.145.145,0,0,1-.055-.1,1.031,1.031,0,0,0-.106-.319.611.611,0,0,0-.042-.054.55.55,0,0,0-.12-.135.569.569,0,0,0-.116-.057.644.644,0,0,0-.11-.041,1.082,1.082,0,0,0-.194-.022c-.019,0-.033-.006-.052-.006a.337.337,0,0,0-.135-.01s0,.005,0,.01h0c.056.233.233.177.293.4a.69.69,0,0,1,.015.267,2.752,2.752,0,0,1-.276.734,6.321,6.321,0,0,0-.368-1c-.3.074-.284-.014-.573-.047-.046.084-.191.074-.33.07a1.007,1.007,0,0,0-.238,0c-.5-.018-.424.54-.666.787l.007,0s0,.008-.007.012c.2,0,.233-.252.391-.3.047-.018.13.061.228.056.079,0,.107-.1.228-.065.144.037.112.177.233.289.056.047.233.056.289.112.106.106.088.184.118.28a.516.516,0,0,0-.332-.047,1.056,1.056,0,0,1-.172,0c-.163.335-.768.228-.955.554l0,.007,0,0c-.009.014-.056.2-.051.177-.047.251-.06.689.074.7C1017.384,193.385,1017.384,193.384,1017.384,193.382Z" transform="translate(-931.091 -173.35)" fill="#652d89"/>
    <path id="Path_4061" data-name="Path 4061" d="M1006.515,175.686c-.248.087-.514.174-.775.25,0-.013,0-.027,0-.041a5.533,5.533,0,0,1-.945.209,5.119,5.119,0,0,1-.8.01c-.391-.019-.764-.1-1.1-.116a3.24,3.24,0,0,0-.428.009,1.391,1.391,0,0,1-.372,0c-.154-.033-.354-.228-.55-.284-.079-.019-.163-.01-.256-.023a.84.84,0,0,0-.107,0,.4.4,0,0,1-.149-.019c-.168-.07-.284-.27-.447-.326-.033-.014-.121.061-.159.066-.019,0-.121-.061-.149-.066-.242-.032-.517-.125-.685-.163a1.748,1.748,0,0,0-.773.065c-.126.028-.335.2-.438-.01a.109.109,0,0,1-.014-.084c.051-.086.238-.114.238-.223-.011,0-.018.006-.029.006.011-.015.029-.028.029-.048a2.243,2.243,0,0,0-1.513.95,3.251,3.251,0,0,1-.861.745,1,1,0,0,1-.563.051.655.655,0,0,1-.32-.417.872.872,0,0,0,.324.049l0,.01a.033.033,0,0,1,.019-.01.7.7,0,0,0,.661-.489.124.124,0,0,0-.023,0,.361.361,0,0,0,.018-.042.2.2,0,0,0-.172.033.207.207,0,0,1-.125.034c0-.014.007-.027.009-.043.149-.214.5-.386.391-.638l0,0c0-.015.005-.029,0-.044a.638.638,0,0,1-.533.25.971.971,0,0,0,.189-.437l-.021.007a.456.456,0,0,0,.016-.049c-.181.046-.331.172-.507.13a.776.776,0,0,1-.348-.553c-.006-.258.192-.43.324-.7a1.765,1.765,0,0,0,.037-.768v-.007c0-.011,0-.025,0-.035a5.075,5.075,0,0,0-.494-1.583c-.093-.168-.13-.359-.312-.438a3.358,3.358,0,0,1-.033.791,5.92,5.92,0,0,1-.3.843,1.255,1.255,0,0,0,.037-.345c-.019,0-.1-.028-.117-.028a1.533,1.533,0,0,0-.414-.047,1.181,1.181,0,0,0-.5.07,3.626,3.626,0,0,0-.959.438c-.113.073-.274.156-.412.248a.632.632,0,0,0-.291.306c.41-.256,1.117-.042,1.55-.27a1.019,1.019,0,0,1-.377.476c-.349.151-.884-.006-1.231.054a.443.443,0,0,0-.237.1h0s-.009,0-.012.008a2.527,2.527,0,0,0-.773,1.141l.02-.015,0,.006c.074-.058.132-.1.191-.14.017-.011.04-.021.058-.031a1.406,1.406,0,0,1,.126-.067c.624-.273,1.974-.175,2.114.361-.646.122-.977.556-1.852.455a.064.064,0,0,1,0,.009c-.008,0-.013,0-.022,0,.116.58.9.43,1.377.617a3.007,3.007,0,0,0-.608.185,4.5,4.5,0,0,0-1.411.991c-.145.144-.326.279-.447.424a6.858,6.858,0,0,0-1.141,2.216c-.065.2-.163.391-.214.6s.022.5-.147.7c-.277-.056-.339-.353-.463-.579l-.006.027c0-.006-.005-.012-.008-.018a1.179,1.179,0,0,0-.047.475c.036.217.274.345.237.449a1.13,1.13,0,0,1-.624-.449c0,.01,0,.017,0,.027l-.017-.018c-.065.373.34.54.3.7a1.252,1.252,0,0,1-1.651-.5c-.028-.056-.019-.172-.061-.233-.088-.13-.279-.256-.41-.4a1.177,1.177,0,0,1-.419-.82.3.3,0,0,1-.094.011.4.4,0,0,1-.112.008c-.181-.036-.34-.187-.539-.177a.891.891,0,0,0-.31.076,1.155,1.155,0,0,0-.6.543c-.01.028-.117.144,0,.177,0,0,.006,0,.007-.006h0a.175.175,0,0,1,.112-.1c.163-.054.43,0,.559-.1.046.309.477.2.576.455a1.544,1.544,0,0,0-.837.02s-.006.007-.007.008h-.007c-.017,0-.072.091-.1.112-.065.019-.159-.023-.223,0,0,0-.006.008-.008.01h0c-.022.009-.067.084-.1.113a2.425,2.425,0,0,0-.375.281.456.456,0,0,0-.08.095c-.107.186-.256.9-.032,1.066l.005-.017s0,.006,0,.008a1.007,1.007,0,0,1,.266-.534c.106-.109.109.028.223.059,0,0,0-.007.006-.011l0,0a.339.339,0,0,1,.07-.134c.237-.257.867-.155,1.057-.062.091.045.275.044.233.164a1.133,1.133,0,0,0-1.011.664c-.007.019-.009.039-.015.059a.807.807,0,0,0-.025.3c0,.026-.011.048-.006.075.023.149.186.284.293.4s.228.335.4.345c0-.006,0-.009-.006-.014s.01,0,.015,0c-.06-.216-.235-.3-.186-.635.1.044.145.034.176-.008s.053-.11.1-.19c.009-.014.024-.022.034-.035a1.1,1.1,0,0,1,.576-.385,1.194,1.194,0,0,1,1.145.326,2.249,2.249,0,0,1,.233.172.455.455,0,0,1,.089.528.327.327,0,0,1-.121.115h0s-.006.007-.01.01a.74.74,0,0,0,.408-.269,1.961,1.961,0,0,0,.267-.406c.04-.08.036-.134.084-.184a.328.328,0,0,1,.07-.049.456.456,0,0,1,.237-.028.608.608,0,0,0,.331-.046c.075.242.126.512.359.582,0-.006,0-.012,0-.018s.008.007.015.009c0-.205-.035-.441.09-.522a1.042,1.042,0,0,0,.469.634,3.009,3.009,0,0,0,.81.452c.158.07.275.177.4.228.159.06.345.047.517.107.144.052.312.168.461.223a6.437,6.437,0,0,1,.689.279c.33.186.5.494.815.629.023.009.033.107.06.116.223.1.424.093.578.284a3.12,3.12,0,0,1,.307.88,2.616,2.616,0,0,1-.046.475,5.657,5.657,0,0,1,.07.592,2.717,2.717,0,0,1-.107.3c-.028.116-.014.265-.047.354-.051.13-.181.191-.219.358,0-.023.065.112.061.177a1.327,1.327,0,0,1-.37,1.01.634.634,0,0,1-.617.01c0,.006.006.01.008.015s-.014,0-.022-.006c.091.3.359.4.571.57-.14.023-.385-.057-.424.066,0,.006-.015,0-.017.012a.733.733,0,0,0,.861.214c-.032.289-.242.4-.321.643h.012l0,.006c.028,0,.047-.009.072-.011.051,0,.1-.006.151-.012.01,0,.015-.012.025-.015a.711.711,0,0,0,.238-.144l.037-.034c.067-.064.131-.132.193-.2.146.009.113.176.173.231a.564.564,0,0,0,.172.061l.026-.005a.344.344,0,0,1,.109.042c.126.1.261.307.41.405.093.06.261.037.345.112.07.056.093.2.177.293a2.217,2.217,0,0,0,.233.233c.116.089.252.084.345.168.046.042.107.149.177.233.316.368.284.456.2.94a3.019,3.019,0,0,1-.047.475c-.135.242-.484.261-.675.428-.223-.139-.433-.34-.745-.219-.065-.112-.223-.121-.288-.228-.233.051-.186.223-.452.247-.112.009-.247-.088-.345-.051a.733.733,0,0,0-.5.661c.293-.074.987-.177,1.2.028a3.584,3.584,0,0,0-.74.074c0,.163.1.116,0,.238-.256.014-.284.2-.391.363-.056.084-.158.149-.168.182-.028.112.028.27.009.414.266-.1.354-.377.675-.429.33.433.959-.261,1.364-.093-.251.172-.712.139-.843.433a.25.25,0,0,1,.233.112,2.626,2.626,0,0,0-.494.838c.139-.056.214-.2.335-.3a1.194,1.194,0,0,0,1.471-.452c.079-.074.167-.154.279-.242.042-.032.074-.1.112-.121.065-.047.167-.014.228-.065.442-.387.749-.973,1.168-1.15a1.539,1.539,0,0,1,1.318.2,1.1,1.1,0,0,0-.647-.754c-.084-.033-.3-.019-.345-.051a4.613,4.613,0,0,1-.3-.526c-.214-.452-.363-1.988,0-2.188.242-.14.466.237.456-.01-.051-.251-.326-.251-.521-.345a.814.814,0,0,1,.736-.312c-.14-.363-.68-.177-.913-.037a1.6,1.6,0,0,1,.244-.566l.026-.012a1.119,1.119,0,0,0,.051-.112l-.014.007c.006-.012.014-.023.019-.035a2.26,2.26,0,0,0-.452.247c-.172.168-.139.424-.33.48a5.205,5.205,0,0,1-.745-.159c-.056-.033-.1-.2-.177-.293-.154-.186-.219-.149-.233-.288a3.578,3.578,0,0,1,.27-.657c.051-.126.047-.242.1-.359.047-.1.172-.2.223-.3a11.46,11.46,0,0,0,.469-1.47.7.7,0,0,0,.113.05.452.452,0,0,0,.177.032.65.65,0,0,0,.421-.164,1.931,1.931,0,0,0,.478-.59,7.162,7.162,0,0,1,1.55-1.977,2.066,2.066,0,0,1,2.068-.462,4.47,4.47,0,0,1,1.327.731,1.441,1.441,0,0,0,.149.6l.023-.036a1.167,1.167,0,0,0,.513.595c.214.051.726.689.661.489s.191.354.093-.861a1.023,1.023,0,0,0-1.159-.977,4.349,4.349,0,0,0-1.332-.861,2.458,2.458,0,0,0-2.325.035,6.163,6.163,0,0,0-2.052,2.34,1.371,1.371,0,0,1-.328.4c-.271.175-.4-.13-.444-.246,0-.261.4-.275.158-.591,0,.017-.01.02-.011.035-.005-.007-.006-.013-.012-.021a.148.148,0,0,1-.045.143.271.271,0,0,1-.155.025c-.237-.052-.354-.317-.466-.4-.042-.032-.023-.084-.061-.116-.06-.056-.154-.051-.233-.112-.06-.047-.116-.13-.177-.172a3.169,3.169,0,0,1-.289-.228c-.047-.042-.126-.014-.172-.056a4.98,4.98,0,0,1-.759-.81,2.26,2.26,0,0,1-.54-1.343,1.842,1.842,0,0,0,.386.584c.2.2.414.386.633.279l-.005,0c.01,0,.019,0,.029,0a.754.754,0,0,1-.308-.779,3.947,3.947,0,0,0,.4.611c.019.028.093.028.116.056.042.056.009.13.061.177.019.014.1.047.116.056.047.028.079.093.117.117.13.074.317.033.461.107.121.065.135.2.233.233a2.188,2.188,0,0,0,.684.042s0-.005,0-.009h.026c0-.191-.2-.2-.293-.288a6.161,6.161,0,0,1-.587-.754,1.356,1.356,0,0,1-.267-.358c.156.084.237.254.416.362.131.084.331.074.461.168.181.13.359.47.526.517.186.056.368.107.573.163.123.035.278.138.429.115a.269.269,0,0,0,.167-.068c-.074-.079-.2-.107-.289-.172a1.166,1.166,0,0,1-.293-.349c-.009-.014-.1-.042-.117-.056-.042-.051-.079-.093-.116-.135a.5.5,0,0,0,.056-.046.3.3,0,0,1-.121-.028l-.112-.139c-.121-.168-.238-.312-.349-.456v-.009a3.652,3.652,0,0,0,.6.428.1.1,0,0,0,.065,0c.023,0,.052,0,.065,0,.061.037.056.121.121.139a.622.622,0,0,0,.13.01c.051.009.112.06.149.065,0,0,.007,0,.011,0h0c.145.023.3-.076.455-.064.132.016.193.138.3.129l.009,0s0,0,0,0a2.053,2.053,0,0,0,.652-.209c-.07-.177-.256-.116-.377-.163a6.115,6.115,0,0,1-.824-.489c-.134-.078-.322-.121-.421-.267.2,0,.339.161.565.2h.014a.665.665,0,0,0,.207-.009H999a1.088,1.088,0,0,1,.2,0,.458.458,0,0,1,.054,0c.214.056.507.307.679.293h.014c.2-.019.382-.032.6-.056a.627.627,0,0,1,.121,0,1.238,1.238,0,0,0,.153,0l.035,0a.343.343,0,0,0,.076-.022.264.264,0,0,0,.164-.132,2.7,2.7,0,0,0-.33-.056,1.171,1.171,0,0,1-.4-.219c-.014-.014-.107,0-.126-.009-.163-.089-.279-.14-.4-.219a8.414,8.414,0,0,1-1.011-.66c.344.05.583.366.965.322a.73.73,0,0,0,.18-.04c.138.2.287.122.5.168.13.028.242.13.3.13,0,0,.006,0,.01,0s.007,0,.009,0c.086,0,.172-.107.253-.109.091.014.191.123.3.127h.014a.986.986,0,0,0,.652-.209,3.358,3.358,0,0,1-.931-.447,3.181,3.181,0,0,1-.89-.515c.1.015.2.066.331.1,0,0,.008,0,.012,0h0c.056.018.109-.018.168-.008s.116.111.171.12c.084.014.261.019.387.033.076.008.139.014.193.017a.617.617,0,0,0,.112,0c.065-.007.1-.035.1-.1a.244.244,0,0,0,.252.181,1.078,1.078,0,0,0,.115-.006.618.618,0,0,1,.2.009c.158.047.158.149.251.154h.014a6.336,6.336,0,0,0,1.066-.251c-.051-.149-.223-.191-.349-.238s-.289-.042-.4-.088-.214-.14-.326-.186c-.247-.1-.48-.2-.68-.293-.083-.041-.257-.006-.251-.151.238.037.482.1.646.1h.014c.1,0,.166-.074.2-.082.116.02.245.125.374.161a1.137,1.137,0,0,0,.461.065s0,0,0-.005h.017c-.027-.1-.239-.2-.144-.315a1.387,1.387,0,0,1,.265.2s.006,0,.008-.006h0c.006-.011.015-.011.021-.02a.242.242,0,0,1,.239-.059.546.546,0,0,0,.247,0l.008,0h0a1.164,1.164,0,0,0,.563-.429,4.589,4.589,0,0,1-.843-.1c-.211-.051-.7-.183-.7-.342a.114.114,0,0,0,.1.013c.075-.025.078-.158.133-.177.028,0,.18.148.249.152a2.778,2.778,0,0,0,.442-.121.793.793,0,0,1,.186,0,.476.476,0,0,0,.121,0s0,0,0,0h.008c.022-.013,0-.081.077-.092a.671.671,0,0,1,.2.037.449.449,0,0,0,.256.028,1.154,1.154,0,0,0,.291-.128.9.9,0,0,0,.249-.226,4.759,4.759,0,0,1-1.1-.121c-.2-.046-.585-.1-.578-.2a1.046,1.046,0,0,0,.582-.056s0,0,0,0l.01,0c.009-.117-.211-.118-.1-.211.152.153.281.1.429.053a1.162,1.162,0,0,1,.132-.038.62.62,0,0,1,.086-.006.415.415,0,0,1,.094,0v0h.011c-.018-.062-.063-.138-.016-.178.1.109.251.095.37.159,0,0,0,0,.006-.006h0a.351.351,0,0,1,.149-.139.355.355,0,0,1,.084-.027.6.6,0,0,1,.073-.012,2.222,2.222,0,0,0,.314-.022s0-.006,0-.008a.73.73,0,0,0,.246-.085.269.269,0,0,0-.242-.133h-.007c-.122-.008-.257.017-.361,0-.456-.056-.884-.163-1.275-.238-.226-.046-.513.042-.555-.149a4.965,4.965,0,0,0,1.011-.047.505.505,0,0,1,.121,0,.512.512,0,0,0,.106,0,.161.161,0,0,0,.032-.005.119.119,0,0,0,.024-.01c.043-.015.078-.052.1-.136.13.181.338.159.556.105.072-.017.146-.038.219-.055-.021-.074-.071-.163-.041-.217a.235.235,0,0,0,.064.086c0-.011,0-.02,0-.031.094.1.236.076.4-.016.014-.167-.279-.084-.144-.2a.74.74,0,0,0,.624-.13c.121-.074.13-.233.223-.349.056-.065.186-.089.242-.163s.047-.168.088-.228c.089-.121.256-.219.233-.387A1.806,1.806,0,0,0,1006.515,175.686Z" transform="translate(-900.011 -155.523)" fill="#652d89"/>
    <path id="Path_4062" data-name="Path 4062" d="M1104.939,172.818a1.326,1.326,0,0,1,.3-.016c.065,0,.126.009.185.017.026,0,.054.005.079.009.15.023.265.05.282.05a.025.025,0,0,0,0-.005h.005a1.288,1.288,0,0,0-.042-.471.489.489,0,0,0-.069-.179,2.656,2.656,0,0,0-.429-.444c0,.675-.014.475-.321,1.038h0Z" transform="translate(-1011.322 -156.328)" fill="#652d89"/>
    <path id="Path_4063" data-name="Path 4063" d="M1042.706,328.362c.24-.3.741-.425.773-.941,0,0,0-.007,0-.009s0-.009,0-.014c-.047-.014-.069-.047-.06-.116-.407-.059-.765-.184-.751-.5.039-.341.372-.3.56-.182.079.051.121.2.233.233.093.023.242-.065.284-.065.187,0,.224.126.344.051,0-.007,0-.016,0-.023h0c-.047-.173.042-.377-.014-.591a.59.59,0,0,0-.177-.233,1.089,1.089,0,0,1-.116-.172,4.4,4.4,0,0,0-.7-.871c-.032-.028-.168-.074-.233-.112-.182-.112-.284-.2-.405-.284a3.083,3.083,0,0,0-.694-.34c-.4-.159-.82-.242-1.15-.387-.093-.042-.237-.191-.3-.191-.022.011-.032.031-.035.068,0,.012-.013.01-.012.03-.078.327.368.39.3.522a1.622,1.622,0,0,1-.846-.159l0,.009-.013,0a1.221,1.221,0,0,0,.238.466c.107.1.323.043.349.226a1.021,1.021,0,0,1-.451.053.684.684,0,0,0-.279.018s0,0,.006.007-.012,0-.015,0c.126.251.475.251.694.4a1.488,1.488,0,0,0,.247.764c.149.181.2.563.3.7.121.172.34.237.465.4.14.186.191.466.359.642-.2.316-.179.735-.348.97a.4.4,0,0,1-.244.157c-.5.116-.7-.438-1.154-.624,0,.006-.005.006-.006.011l0,0a.256.256,0,0,1-.1.205.649.649,0,0,1-.223.088c-.34-.261-.768.084-1.02.261h0l-.012.008c.2.018.321.167.573.163.319,0,.786-.146.906.2a.791.791,0,0,0-.436-.041.74.74,0,0,1-.456-.047s0,0,0,.007-.007,0-.009,0c.13.372-.284.368-.387.54a1.123,1.123,0,0,0-.091.4c0,.017-.007.034-.011.052a.622.622,0,0,1-.056.148c.025-.012.052-.033.077-.048l.007,0c.018-.011.037-.029.055-.041.1-.07.207-.151.317-.235a1.619,1.619,0,0,1,.39-.233,1.785,1.785,0,0,1,.246-.074h0a.959.959,0,0,1,.65.048,1.781,1.781,0,0,0-.838.127.407.407,0,0,0-.165.436c-.33.1-.2.647-.317.955.266-.047.321-.48.615-.605.037-.014.214.061.284.051a.756.756,0,0,0,.1-.033h0l.016-.006c.12-.041.256-.1.389-.152a3.336,3.336,0,0,1,1.131-.266,2.27,2.27,0,0,1,.4.107,1.067,1.067,0,0,1,.642.633c0-.006,0-.011,0-.017l0,.008c.26-.6-.261-.875-.261-1.355,0-.116.14-.284.163-.358s-.028-.2-.009-.293.116-.149.168-.242S1042.659,328.423,1042.706,328.362Z" transform="translate(-950.509 -295.302)" fill="#652d89"/>
    <path id="Path_4064" data-name="Path 4064" d="M1141.755,314.167l0,.012-.009-.012.037.093.056.023,0,0,.007,0A1.1,1.1,0,0,1,1141.755,314.167Z" transform="translate(-1045.019 -286.652)" fill="#652d89"/>
  </g>
</svg>
